<svg width="24" height="24" viewBox="0 0 24 24" fill="none" xmlns="http://www.w3.org/2000/svg">
<g clip-path="url(#clip0_316_981)">
<path d="M3.0264 3.43958C2.59505 3.43958 2.18138 3.61093 1.87638 3.91592C1.57137 4.22094 1.40002 4.6346 1.40002 5.06595V20.5165C1.40002 20.9478 1.57137 21.3616 1.87638 21.6665C2.18138 21.9715 2.59505 22.1429 3.0264 22.1429H20.9165C21.3479 22.1429 21.7616 21.9715 22.0665 21.6665C22.3715 21.3616 22.5429 20.9478 22.5429 20.5165V5.06595C22.5429 4.6346 22.3715 4.22094 22.0665 3.91592C21.7616 3.61093 21.3479 3.43958 20.9165 3.43958H17.6638" stroke="#262626" stroke-width="1.89744" stroke-linecap="round" stroke-linejoin="round"/>
<path d="M6.27917 1V5.87913" stroke="#262626" stroke-width="1.89744" stroke-linecap="round" stroke-linejoin="round"/>
<path d="M17.6638 1V5.87913" stroke="#262626" stroke-width="1.89744" stroke-linecap="round" stroke-linejoin="round"/>
<path d="M6.27917 3.43958H14.4111" stroke="#262626" stroke-width="1.89744" stroke-linecap="round" stroke-linejoin="round"/>
<path d="M6.27913 10.7582C6.72824 10.7582 7.09232 10.3941 7.09232 9.94502C7.09232 9.49592 6.72824 9.13184 6.27913 9.13184C5.83002 9.13184 5.46594 9.49592 5.46594 9.94502C5.46594 10.3941 5.83002 10.7582 6.27913 10.7582Z" stroke="#262626" stroke-width="1.62638" stroke-linecap="round" stroke-linejoin="round"/>
<path d="M11.9715 10.7582C12.4206 10.7582 12.7846 10.3941 12.7846 9.94502C12.7846 9.49592 12.4206 9.13184 11.9715 9.13184C11.5223 9.13184 11.1583 9.49592 11.1583 9.94502C11.1583 10.3941 11.5223 10.7582 11.9715 10.7582Z" stroke="#262626" stroke-width="1.62638" stroke-linecap="round" stroke-linejoin="round"/>
<path d="M17.6638 10.7582C18.1128 10.7582 18.477 10.3941 18.477 9.94502C18.477 9.49592 18.1128 9.13184 17.6638 9.13184C17.2147 9.13184 16.8506 9.49592 16.8506 9.94502C16.8506 10.3941 17.2147 10.7582 17.6638 10.7582Z" stroke="#262626" stroke-width="1.62638" stroke-linecap="round" stroke-linejoin="round"/>
<path d="M6.27913 17.2638C6.72824 17.2638 7.09232 16.8997 7.09232 16.4506C7.09232 16.0015 6.72824 15.6375 6.27913 15.6375C5.83002 15.6375 5.46594 16.0015 5.46594 16.4506C5.46594 16.8997 5.83002 17.2638 6.27913 17.2638Z" stroke="#262626" stroke-width="1.62638" stroke-linecap="round" stroke-linejoin="round"/>
<path d="M11.9715 17.2638C12.4206 17.2638 12.7846 16.8997 12.7846 16.4506C12.7846 16.0015 12.4206 15.6375 11.9715 15.6375C11.5223 15.6375 11.1583 16.0015 11.1583 16.4506C11.1583 16.8997 11.5223 17.2638 11.9715 17.2638Z" stroke="#262626" stroke-width="1.62638" stroke-linecap="round" stroke-linejoin="round"/>
</g>
<defs>
<clipPath id="clip0_316_981">
<rect width="24" height="24" fill="white"/>
</clipPath>
</defs>
</svg>
