<svg width="24" height="24" viewBox="0 0 24 24" fill="none" xmlns="http://www.w3.org/2000/svg">
<g clip-path="url(#clip0_316_996)">
<path d="M11.9714 0.999992C14.0622 0.999992 16.1061 1.62 17.8446 2.7816C19.583 3.9432 20.938 5.59424 21.7381 7.52591C22.5383 9.45759 22.7476 11.5832 22.3397 13.6338C21.9318 15.6845 20.925 17.5681 19.4465 19.0466C17.9681 20.525 16.0844 21.5318 14.0338 21.9397C11.9831 22.3476 9.85757 22.1383 7.92589 21.3382C5.99421 20.538 4.34318 19.1831 3.18158 17.4446C2.01997 15.7061 1.39997 13.6623 1.39997 11.5714C1.39662 8.54307 2.56177 5.63019 4.65272 3.43955" stroke="#262626" stroke-width="1.89744" stroke-linecap="round" stroke-linejoin="round"/>
<path d="M1.39996 4.2527L4.65271 3.43951L5.4659 6.69226" stroke="#262626" stroke-width="1.89744" stroke-linecap="round" stroke-linejoin="round"/>
<path d="M11.9714 5.87915V12.3846L16.2 14.4989" stroke="#262626" stroke-width="1.89744" stroke-linecap="round" stroke-linejoin="round"/>
</g>
<defs>
<clipPath id="clip0_316_996">
<rect width="24" height="24" fill="white"/>
</clipPath>
</defs>
</svg>
