<svg width="24" height="24" viewBox="0 0 24 24" fill="none" xmlns="http://www.w3.org/2000/svg">
<g clip-path="url(#clip0_316_970)">
<path d="M4.14862 8.2048L22.5429 18.8088" stroke="#262626" stroke-width="1.89744" stroke-linecap="round" stroke-linejoin="round"/>
<path d="M5.05937 8.31866C7.08037 8.31866 8.71872 6.68031 8.71872 4.65931C8.71872 2.63831 7.08037 0.999966 5.05937 0.999966C3.03837 0.999966 1.40002 2.63831 1.40002 4.65931C1.40002 6.68031 3.03837 8.31866 5.05937 8.31866Z" stroke="#262626" stroke-width="1.89744" stroke-linecap="round" stroke-linejoin="round"/>
<path d="M4.14862 14.938L22.5429 4.33407" stroke="#262626" stroke-width="1.89744" stroke-linecap="round" stroke-linejoin="round"/>
<path d="M5.05937 22.1429C7.08037 22.1429 8.71872 20.5045 8.71872 18.4835C8.71872 16.4625 7.08037 14.8242 5.05937 14.8242C3.03837 14.8242 1.40002 16.4625 1.40002 18.4835C1.40002 20.5045 3.03837 22.1429 5.05937 22.1429Z" stroke="#262626" stroke-width="1.89744" stroke-linecap="round" stroke-linejoin="round"/>
</g>
<defs>
<clipPath id="clip0_316_970">
<rect width="24" height="24" fill="white"/>
</clipPath>
</defs>
</svg>
